<?xml version="1.0" encoding="UTF-8"?>
<svg version="1.1" viewBox="0 0 2048 2048" width="1280" height="1280" xmlns="http://www.w3.org/2000/svg">
<path transform="translate(497)" d="m0 0h714l7 8 11 11v2h2l7 8 18 18 7 8 16 16 7 8 18 18 7 8 18 18 7 8 16 16 7 8 16 16 7 8 20 20v2h2l7 8 17 17 7 8 17 17 7 8 16 16 7 8 20 20 7 8 16 16 7 8 20 20 7 8 16 16 7 8 20 20 7 8 15 15 7 8 17 17v2h2l7 8 18 18 7 8 20 20 7 8 12 12 7 8 18 18v2h2l7 8 22 22 7 8 5 6 1 3v1180l-2 27-3 20-5 21-9 27-11 24-8 14-12 18-13 17-14 15-11 11-11 9-16 12-16 10-18 10-23 10-25 8-32 7-12 2h-1048l-37-7-19-5-20-7-18-8-17-9-21-14-12-9-10-9-8-7-13-13-9-11-10-13-10-15-10-18-9-19-9-25-6-24-4-27-1-12v-1546l3-26 5-24 8-26 11-26 11-20 13-19 11-14 9-10 21-21 14-11 19-13 17-10 21-10 25-9 24-6z" fill="#E92828"/>
<path transform="translate(1209)" d="m0 0h2l7 8 11 11v2h2l7 8 18 18 7 8 16 16 7 8 18 18 7 8 18 18 7 8 16 16 7 8 16 16 7 8 20 20v2h2l7 8 17 17 7 8 17 17 7 8 16 16 7 8 20 20 7 8 16 16 7 8 20 20 7 8 16 16 7 8 20 20 7 8 15 15 7 8 17 17v2h2l7 8 18 18 7 8 20 20 7 8 12 12 7 8 18 18v2h2l7 8 22 22 7 8 2 4h-33l-167 1h-94l-220-1-62-1-1-1-1-368v-123z" fill="#ED6C6B"/>
<path transform="translate(912,1154)" d="m0 0h99l37 2 27 5 24 8 20 9 16 9 14 10 13 11 8 8 10 13 9 15 9 20 6 20 4 20 2 18v40l-4 27-6 23-7 18-10 18-9 12-9 11-11 10-13 10-20 12-20 9-21 7-22 5-25 3h-150l-1-5v-315l1-52z" fill="#FEFEFD"/>
<path transform="translate(556,1154)" d="m0 0h150l27 1 19 3 12 3 19 8 14 9 10 8 11 11 7 10 9 17 5 16 3 17v34l-4 20-6 16-8 15-12 15-8 7-12 9-17 9-18 6-14 3-25 2h-68v134h-95l-1-3v-369z" fill="#FEFEFD"/>
<path transform="translate(1289,1154)" d="m0 0h234l2 1v79l-1 1-169 1v26l1 33 134 1 1 56v18l-1 5-136 1v151h-94l-1-3v-368l1-1z" fill="#FEFEFD"/>
<path transform="translate(976,1235)" d="m0 0h45l23 4 16 6 16 8 14 11 9 11 8 15 6 20 3 21v18l-2 18-4 17-7 16-7 11-13 13-15 9-16 7-14 4-22 3h-40z" fill="#E92828"/>
<path transform="translate(650,1235)" d="m0 0h63l15 4 10 7 6 8 4 12v16l-4 11-6 8-8 6-11 4-5 1-60 1-4-1z" fill="#E92B2B"/>
<path transform="translate(1259,1153)" d="m0 0h121v1l-91 1-29 1v371h94v-151l2-1h134v-79h-134l-1-1-1-33v-26l1-1h169v1h-168v58h134l2 3v78l-2 2-22 1h-104l-8-1v150l-2 2-12 1h-71l-12-1-1-1-1-23-1-51v-218l1-78z" fill="#ED6C6B"/>
<path transform="translate(950,1152)" d="m0 0h67l35 3 20 4 10 3-4 1-18-4-12-2-37-2h-128v372l150-1 25-3 26-6 9-3 3 1-21 7-25 5-25 2-34 1h-82l-25-1-3-2-1-81v-287l2-5 1-1z" fill="#ED6C6B"/>
<path transform="translate(976,1235)" d="m0 0h45l23 4 11 4-3 1-15-4-11-2-13-1h-35v30l1 176 2 2h16l23-1 16-2 18-5 17-8 2 1-16 8-15 5-17 3-9 1h-40z" fill="#ED6C6B"/>
<path transform="translate(760,1386)" d="m0 0 4 1-15 4-19 3-19 1-59 1-1 132-2 1-43 1-47-1-5-1-1-4h2v3h95v-134l68-1 25-2z" fill="#ED6C6B"/>
<path transform="translate(671,1152)" d="m0 0h42l31 3 17 4-4 1-15-3-9-1-27-1h-152l1-2z" fill="#ED6C6B"/>
<path transform="translate(1109,1299)" d="m0 0 2 3 4 20 1 9v18l-2 18-2 9h-1l1-16 1-13v-11l-2-25-2-8z" fill="#ED6C6B"/>
</svg>
